<svg viewBox="0 0 242 81" fill="none" xmlns="http://www.w3.org/2000/svg"><path d="M230.277 58.186c6.478 0 11.723 5.128 11.723 11.407C242 75.87 236.755 81 230.277 81c-6.479 0-11.723-5.129-11.723-11.407 0-6.279 5.244-11.407 11.723-11.407zM106.522 9.506c2.116 2.697 3.041 7.295 3.041 11.76l-.176 34.267c-.353 8.931-5.509 18.57-13.706 21.576-8.198 3.758-20.979 3.05-28.118-2.299-6.215-4.642-9.432-11.23-9.784-18.747V17.907c.528-5.35 3.393-11.23 8.02-13.75C69.194 2.033 72.896.574 76.819.396c8.55-.883 23.49-1.06 29.704 9.109zm-19.92 9.418c-1.234-1.062-3.041-1.238-4.452-.708-1.41.53-2.291 1.769-2.468 3.228v33.558c.177 1.415 1.234 2.697 2.689 3.05 1.058.355 2.292.178 3.217 0 1.058-.706 2.116-1.237 2.116-3.227V21.621c-.045-1.415-.573-1.946-1.102-2.697zM202.203.044c.529.177 12.605 79.01 12.605 79.409h-19.921l-2.116-11.761h-15.116l-2.292 11.76h-20.449S170.03.222 169.854.044c-.22.177 32.349 0 32.349 0zM189.378 50.36s-4.451-22.638-4.451-22.815c0 0 0-.353-4.628 22.815h9.079zm-50.507 8.356h12.825v20.692h-34.332V.044h21.331c.176 0 .176 58.849.176 58.672zM21.155 28.386h8.373V0H50.33v79.408H29.705V48.37H21.33v31.038H0V.044h21.155v28.341zm206.654 10.522v5.527h-2.336c-.705 0-1.234 0-1.587.177-.352.177-.352.354-.352.707 0 .354.176.53.352.708.177.177.706.177 1.587.177h9.255c.705 0 1.234-.177 1.587-.354.352-.177.529-.354.529-.708a.974.974 0 00-.529-.884c-.353-.177-1.058-.177-1.939-.177h-2.292v-5.35c1.586 0 2.688 0 3.57.177.705.177 1.586.354 2.291 1.061.882.531 1.411 1.238 1.763 2.123.353.884.529 1.945.529 3.404 0 1.592-.352 3.05-.881 3.935-.529 1.061-1.411 1.592-2.468 2.123-1.058.353-2.468.53-4.452.53h-5.509c-1.586 0-2.864-.177-3.746-.53-.881-.354-1.586-1.062-2.292-2.123-.705-1.06-1.057-2.476-1.057-3.935 0-1.592.352-2.874 1.057-3.935.706-1.061 1.411-1.768 2.469-2.122 1.234-.354 2.644-.53 4.451-.53zm-.529-15.519h4.804c1.763 0 3.041 0 3.922.177.882.177 1.587.53 2.292 1.061.705.53 1.234 1.238 1.587 2.122.352.885.528 1.946.528 3.228 0 1.238-.176 2.476-.352 3.405-.353.884-.705 1.591-1.234 2.122-.529.53-1.234.884-2.116 1.061-.881.177-2.115.354-3.746.354h-4.98c-1.763 0-3.217-.177-4.275-.53-1.058-.355-1.763-1.062-2.468-2.123-.529-1.061-.881-2.3-.881-3.935 0-1.238.176-2.476.528-3.405a4.594 4.594 0 011.587-2.122c.705-.53 1.234-.884 1.939-1.061.529-.177 1.587-.354 2.865-.354zm-1.454 5.88c-1.058 0-1.587 0-1.94.178-.176.176-.352.353-.352.707s.176.53.352.707c.177.177.882.177 1.94.177h8.726c.881 0 1.586 0 1.763-.177.352-.177.352-.353.352-.707s-.176-.53-.352-.707c-.177-.177-.882-.177-1.587-.177h-8.902zm-5.333-13.882l1.763.176c-.705-.53-1.234-1.06-1.587-1.591-.352-.708-.529-1.415-.529-2.123 0-1.591.705-2.874 2.116-3.758-.705-.53-1.234-1.061-1.587-1.592-.352-.707-.529-1.238-.529-2.122 0-1.06.177-1.768.705-2.476.529-.707 1.058-1.06 1.763-1.238.705-.177 1.763-.354 3.394-.354h13.883v5.704H227.28c-1.587 0-2.688 0-3.041.177-.353.177-.529.354-.529.707 0 .354.176.708.529.885.353.177 1.41.177 3.041.177h12.605v5.703h-12.252c-1.94 0-3.041 0-3.394.177-.353.177-.529.354-.529.707 0 .177.176.531.353.708.176.177.352.354.705.354h15.293v5.703h-19.392v-5.88h-.176v-.044z" fill="#E30613"></path></svg>
