<svg data-name="Capa 2" viewBox="0 0 318.39 45.57" xmlns="http://www.w3.org/2000/svg"><g data-name="Capa 1"><path d="M264.05 3.09C265 .85 266.44 0 268.94 0h13.07l-.35.95c-.3.8-1.59 4.24-5.39 4.24h-8.63c-2.99 0-4.53.2-4.53.2l.95-2.29Zm42.92 27.55c0 3.18 2.48 5.66 5.66 5.66s5.76-2.48 5.76-5.66-2.57-5.76-5.76-5.76-5.66 2.56-5.66 5.76m-133.07-6.9c-.18 1.31-.23 1.94-.23 2.82 0 3.5 1.46 5.48 4.15 5.48 2.4 0 4.05-1.31 5.7-4.44h3.82c-1.7 5.38-5.13 8.2-9.99 8.2-5.32 0-8.52-3.66-8.52-9.77 0-8.98 5.36-15.93 12.29-15.93 4.71 0 7.58 3.34 7.58 8.83 0 1.62-.14 2.72-.66 4.75l-14.13.05Zm9.9-3.5c.19-1.05.24-1.62.24-2.35 0-2.56-1.23-4.07-3.25-4.07-2.64 0-4.76 2.24-6.08 6.53l9.09-.11Zm25.85-9.61-1.74 7.84h-3.11c.1-.68.14-1 .14-1.36 0-2.14-1.37-3.39-3.63-3.39s-3.82 1.3-3.82 3.19c0 .83.33 1.51.99 2.09q.51.42 2.83 1.83c2.11 1.36 2.83 1.83 3.63 2.5 1.37 1.15 2.07 2.72 2.07 4.65 0 4.49-3.58 7.83-8.39 7.83-2.92 0-4.94-1.15-5.94-3.29l-.61 2.77h-3.11l1.93-8.62H194c-.1.68-.14.99-.14 1.41 0 2.51 1.7 4.13 4.34 4.13 2.4 0 4.1-1.51 4.1-3.66 0-.94-.37-1.72-1.13-2.3q-.56-.47-3.11-2.04c-4.24-2.56-5.28-3.86-5.28-6.63 0-4.28 3.39-7.47 7.91-7.47 2.59 0 4.29.89 5.37 2.82l.52-2.3h3.06Zm10.88 0-.7 3.14c1.79-2.4 3.91-3.66 6.31-3.66 4.1 0 6.97 3.97 6.97 9.56 0 8.67-5.28 16.14-11.4 16.14-2.97 0-4.9-1.46-5.75-4.28l-2.35 10.5h3.77l-.8 3.55h-11.26l.8-3.55h3.16l6.27-28h-3.44l.75-3.4h7.68Zm-.66 6.95c-1.22 2.35-2.26 6.58-2.26 9.24 0 3.19 1.41 5.22 3.67 5.22 1.98 0 3.68-1.36 4.99-4.02 1.23-2.5 2.07-6.11 2.07-8.83 0-3.34-1.41-5.37-3.68-5.37-1.88 0-3.53 1.25-4.8 3.76m18.15.94 1.51-5.75c2.54-1.88 4.75-2.66 7.72-2.66 4.29 0 6.83 2.09 6.83 5.64 0 1.25-.14 2.14-.66 4.55l-2.59 11.44h3.25l-.8 3.55h-7.44l.75-3.55c-1.74 2.82-3.63 4.07-6.22 4.07-3.44 0-5.89-2.56-5.89-6.16s2.45-6.64 6.64-8.25c2.17-.84 3.81-1.25 8.05-2.04l.19-.94c.24-1.15.33-1.62.33-2.19 0-1.56-1.08-2.4-3.11-2.4-2.83 0-4.29 1.3-5.32 4.7H238Zm10.5 3.71c-2.92.63-4.24 1.04-5.7 1.77-2.17 1.1-3.39 2.77-3.39 4.75 0 1.88 1.17 3.13 2.97 3.13 1.69 0 3.29-1.09 4.28-2.92.47-.94.66-1.56 1.36-4.65l.47-2.09Zm19.03-7.58c1.98-3.09 4.15-4.55 6.74-4.55 3.11 0 5.18 2.3 5.18 5.69 0 1.36-.14 2.14-.94 5.85l-2.31 10.08h3.49l-.8 3.55h-10.55l.8-3.55h2.4l2.55-11.28c.28-1.2.42-2.24.42-2.98 0-1.78-1.03-2.87-2.73-2.87-1.5 0-2.92.89-4 2.51-.66 1.05-.99 1.93-1.56 4.55l-2.26 10.08h2.73l-.76 3.55h-10.6l.8-3.55h3.11l4.01-17.71h-3.49l.8-3.4h7.87l-.9 4.02Zm18.61 3.87 1.51-5.75c2.54-1.88 4.76-2.66 7.73-2.66 4.29 0 6.83 2.09 6.83 5.64 0 1.25-.14 2.14-.66 4.55l-2.59 11.44h3.25l-.8 3.55h-7.45l.76-3.55c-1.74 2.82-3.63 4.07-6.22 4.07-3.44 0-5.89-2.56-5.89-6.16s2.45-6.64 6.64-8.25c2.17-.84 3.81-1.25 8.05-2.04l.19-.94c.23-1.15.33-1.62.33-2.19 0-1.56-1.09-2.4-3.11-2.4-2.83 0-4.29 1.3-5.32 4.7h-3.25Zm10.5 3.71c-2.91.63-4.23 1.04-5.69 1.77-2.17 1.1-3.4 2.77-3.4 4.75 0 1.88 1.18 3.13 2.97 3.13s3.3-1.09 4.29-2.92c.47-.94.66-1.56 1.36-4.65l.47-2.09Z" style="fill:#233d78"/><path d="m16.68 26.25 7.81-16.18h5.23l1.09 25.73h-4.76l-.71-17.4h-.07l-8.59 17.4h-2.34l-4.08-17.89h-.07L4.96 35.8H0l7.54-25.73h5.4zm17.45 9.55 3.26-25.73h14.47l-.54 4.29h-9.55L41 20.44h8.38l-.54 4.3h-8.39l-.85 6.76h12.02l-.54 4.3zm30.81-25.73c9.24 0 11.96 6.94 11.96 12.53 0 7.66-4.76 13.21-10.94 13.21H54.01l3.23-25.73h7.71zM59.47 31.5h4.62c5.47 0 7.71-4.53 7.71-8.98s-2.72-8.15-7.81-8.15h-2.38L59.47 31.5zm19.76 4.3 3.26-25.73h4.93L84.16 35.8zm7.95 0L98.52 9.73h5.23l4.08 26.07h-5.06l-.71-5.63h-7.2l-2.24 5.63h-5.44zm14.47-9.28-1.22-11.4h-.07l-4.07 11.4h5.37zm7.98 2.67c1.87 1.51 4.62 2.64 6.55 2.64s3.33-1.13 3.33-2.83c0-4.27-8.52-4.76-8.52-11.51 0-4.45 3.46-7.77 8.15-7.77 2.24 0 4.62.72 6.62 2.04l-.68 4.53c-1.5-1.21-3.97-2.27-5.74-2.27s-3.26 1.13-3.26 2.83c0 3.7 8.53 4.19 8.53 11.4 0 4.15-2.65 7.88-7.84 7.88-3.37 0-5.81-.94-7.88-2.45l.75-4.49Zm17.76 6.61 3.26-25.73h14.47l-.55 4.29h-9.54l-.78 6.08h8.39l-.55 4.3h-8.39l-.84 6.76h12.02l-.54 4.3zm20.31-21.44.54-4.3h19.8l-.54 4.3h-7.54l-2.72 21.44h-4.92l2.71-21.44z" style="fill:#a5a6a9"/></g></svg>