<svg width="128" height="30" viewBox="0 0 128 30" fill="none" xmlns="http://www.w3.org/2000/svg">
<g clip-path="url(#clip0_2138_87)">
<path d="M52.6 30C50.9 30 50.1 29 50 27.6H51.4C51.5 28.5 52.1 28.8 52.6 28.8C53.2 28.8 53.8 28.3 53.8 27.7C53.8 26.9 53.1 26.7 52.1 26.3C51.5 26.1 50.1 25.6 50.1 24.2C50.1 22.8 51.3 22 52.6 22C53.3 22 54.1 22.3 54.5 22.8C54.9 23.3 55 23.7 55 24.1H53.6C53.5 23.7 53.3 23.2 52.6 23.2C52 23.2 51.6 23.6 51.6 24.2C51.6 24.9 52.1 25.1 53.4 25.6C54.7 26.1 55.3 26.9 55.3 27.8C55.2 28.8 54.4 30 52.6 30Z" fill="black"/>
<path d="M61.4002 26.5C60.9002 26.9 60.4002 27.1 59.2002 27.1H58.1002V29.9H56.7002V22H59.0002C60.3002 22 60.8002 22.2 61.2002 22.5C61.8002 22.9 62.1002 23.7 62.1002 24.5C62.3002 25.3 61.9002 26.1 61.4002 26.5ZM60.4002 23.5C60.1002 23.3 59.6002 23.3 59.2002 23.3H58.2002V25.8H59.2002C59.7002 25.8 60.0002 25.8 60.4002 25.6C60.7002 25.4 60.9002 25 60.9002 24.6C60.9002 24.1 60.7002 23.7 60.4002 23.5Z" fill="black"/>
<path d="M68.2998 29.9L67.5998 28.1H64.4998L63.7998 29.9H62.2998L65.9998 21.9H66.2998L69.8998 29.9H68.2998ZM65.9998 24.4L64.7998 27H67.0998L65.9998 24.4Z" fill="black"/>
<path d="M71.3999 29.9V22H72.7999V29.8H71.3999V29.9Z" fill="black"/>
<path d="M81.1002 30H80.7002L76.0002 24.7001V29.8H74.7002V21.8H75.1002L79.8002 27V22H81.1002V30Z" fill="black"/>
<path d="M98.9002 11.4V11.5C98.8002 13.3 98.2002 14.7 97.1002 15.7C95.1002 17.5 92.1002 17.4 91.4002 17.3H91.3002V9.2H91.5002C92.9002 9.2 94.6002 9.1 94.9002 12.6V12.7H95.2002V5.3H94.9002V5.4C94.5002 8.8 92.8002 8.8 91.4002 8.8H91.3002V0.9C91.5002 0.9 91.8002 0.9 92.0002 0.9C94.6002 0.9 97.2002 0.6 98.4002 6.2V6.3H98.7002V0.5H83.4002V0.9H84.7002V13.2C84.7002 15 84.0002 16 83.4002 16.6C82.7002 17.3 81.6002 17.7 80.7002 17.6C77.3002 17.5 77.2002 14 77.2002 13.9V0.9H78.8002V0.5H72.7002V0.9H74.3002V12.5C74.3002 15.7 75.9002 18.1 80.6002 18.1C83.7002 18.1 85.2002 15.5 85.2002 13.3V0.9H86.6002H88.3002V17.3H86.8002V17.7H99.3002V11.3H98.9002V11.4Z" fill="black"/>
<path d="M67.2999 10.4V10.8H68.6999V14.4C68.6999 17.1 66.8999 17.7 65.4999 17.7C63.9999 17.7 62.9999 17 62.3999 15.5C61.7999 14 61.4999 12.6 61.4999 9.2C61.4999 8 61.6999 4.1 62.5999 2.4C62.8999 1.8 63.5999 0.5 65.3999 0.5C67.6999 0.5 68.9999 2.1 69.9999 6.3V6.4H70.2999V0H70.0999V0.1C69.8999 0.7 69.2999 0.8 68.7999 0.8C68.5999 0.8 68.2999 0.8 68.1999 0.7C68.0999 0.7 67.9999 0.6 67.9999 0.6C67.7999 0.5 67.5999 0.5 67.3999 0.4C67.2999 0.4 67.1999 0.3 67.1999 0.3C66.5999 0.1 66.1999 0 65.4999 0C62.4999 0 58.3999 3 58.3999 9.3C58.3999 14.4 61.4999 18 65.6999 18C66.4999 18 67.0999 17.7 67.6999 17.5C67.7999 17.5 67.8999 17.4 67.9999 17.4C68.5999 17.1 69.1999 16.9 69.7999 16.8H69.8999C69.8999 16.8 69.8999 16.8 69.9999 16.8C70.3999 16.8 71.0999 17 71.1999 17.7V17.8H71.3999V10.7H72.6999V10.3L67.2999 10.4Z" fill="black"/>
<path d="M49.5001 0.0999756C46.0001 0.0999756 42.1001 3.59998 42.1001 9.09998C42.1001 14.6 46.1001 18.1 49.5001 18.1C52.9001 18.1 56.9001 14.5 56.9001 9.09998C56.9001 3.59998 53.0001 0.0999756 49.5001 0.0999756ZM53.6001 8.39997V8.49998V8.59998C53.6001 8.59998 53.6001 8.59997 53.6001 8.69998V8.79998V8.89997V8.99998V9.09998C53.6001 10.1 53.5001 14 52.5001 15.9C51.9001 17 50.8001 17.6 49.5001 17.6C48.2001 17.6 47.0001 17 46.5001 15.9C45.5001 14 45.4001 10.1 45.4001 9.09998V8.99998V8.89997V8.79998V8.69998C45.4001 8.69998 45.4001 8.69998 45.4001 8.59998V8.49998V8.39997C45.4001 6.89997 45.6001 3.99998 46.5001 2.29998C47.2001 0.899976 48.6001 0.599976 49.6001 0.599976C50.6001 0.599976 51.9001 0.899976 52.6001 2.29998C53.4001 3.89998 53.6001 6.79997 53.6001 8.39997Z" fill="black"/>
<path d="M40.1999 0.5V0.9H41.5999L37.7999 13.5L33.2999 0.9H34.5999V0.7V0.5H28.8999V0.9H30.5999L36.9999 17.8H37.0999L41.9999 0.9H43.5999V0.5H40.1999Z" fill="black"/>
</g>
<defs>
<clipPath id="clip0_2138_87">
<rect width="128" height="30" fill="white"/>
</clipPath>
</defs>
</svg>
